{
    "asset" : {
        "generator" : "Khronos glTF Blender I/O v1.2.75",
        "version" : "2.0"
    },
    "scene" : 0,
    "scenes" : [
        {
            "name" : "Scene",
            "nodes" : [
                0,
                1,
                2
            ]
        }
    ],
    "nodes" : [
        {
            "mesh" : 0,
            "name" : "Sphere",
            "scale" : [
                0.5,
                0.5,
                0.5
            ],
            "translation" : [
                0,
                0.5,
                0
            ]
        },
        {
            "mesh" : 1,
            "name" : "Cube",
            "scale" : [
                0.5,
                0.5,
                0.5
            ],
            "translation" : [
                0,
                0.5,
                -1.2382569313049316
            ]
        },
        {
            "mesh" : 2,
            "name" : "Cube.001",
            "scale" : [
                2,
                2,
                2
            ],
            "translation" : [
                0,
                -1.9862767457962036,
                0
            ]
        }
    ],
    "materials" : [
        {
            "doubleSided" : true,
            "emissiveFactor" : [
                0,
                0,
                0
            ],
            "name" : "Material.002",
            "pbrMetallicRoughness" : {
                "baseColorFactor" : [
                    0.800000011920929,
                    0.800000011920929,
                    0.800000011920929,
                    1
                ],
                "metallicFactor" : 1,
                "roughnessFactor" : 0
            }
        },
        {
            "doubleSided" : true,
            "emissiveFactor" : [
                0,
                0,
                0
            ],
            "name" : "Material.003",
            "pbrMetallicRoughness" : {
                "baseColorFactor" : [
                    0.17758618295192719,
                    0.04799390211701393,
                    0.8000000715255737,
                    1
                ],
                "metallicFactor" : 0,
                "roughnessFactor" : 0.5
            }
        },
        {
            "doubleSided" : true,
            "emissiveFactor" : [
                0,
                0,
                0
            ],
            "name" : "Material.004",
            "pbrMetallicRoughness" : {
                "baseColorFactor" : [
                    0.8000000715255737,
                    0.014410963281989098,
                    0.04305751994252205,
                    1
                ],
                "metallicFactor" : 0,
                "roughnessFactor" : 0.5
            }
        }
    ],
    "meshes" : [
        {
            "name" : "Sphere",
            "primitives" : [
                {
                    "attributes" : {
                        "POSITION" : 0,
                        "NORMAL" : 1,
                        "TEXCOORD_0" : 2
                    },
                    "indices" : 3,
                    "material" : 0
                }
            ]
        },
        {
            "name" : "Cube.001",
            "primitives" : [
                {
                    "attributes" : {
                        "POSITION" : 4,
                        "NORMAL" : 5,
                        "TEXCOORD_0" : 6
                    },
                    "indices" : 7,
                    "material" : 1
                }
            ]
        },
        {
            "name" : "Cube.002",
            "primitives" : [
                {
                    "attributes" : {
                        "POSITION" : 8,
                        "NORMAL" : 9,
                        "TEXCOORD_0" : 10
                    },
                    "indices" : 7,
                    "material" : 2
                }
            ]
        }
    ],
    "accessors" : [
        {
            "bufferView" : 0,
            "componentType" : 5126,
            "count" : 1984,
            "max" : [
                1.000000238418579,
                1,
                1.0000003576278687
            ],
            "min" : [
                -0.9999998211860657,
                -1,
                -1
            ],
            "type" : "VEC3"
        },
        {
            "bufferView" : 1,
            "componentType" : 5126,
            "count" : 1984,
            "type" : "VEC3"
        },
        {
            "bufferView" : 2,
            "componentType" : 5126,
            "count" : 1984,
            "type" : "VEC2"
        },
        {
            "bufferView" : 3,
            "componentType" : 5123,
            "count" : 2880,
            "type" : "SCALAR"
        },
        {
            "bufferView" : 4,
            "componentType" : 5126,
            "count" : 24,
            "max" : [
                1,
                1,
                1
            ],
            "min" : [
                -1,
                -1,
                -1
            ],
            "type" : "VEC3"
        },
        {
            "bufferView" : 5,
            "componentType" : 5126,
            "count" : 24,
            "type" : "VEC3"
        },
        {
            "bufferView" : 6,
            "componentType" : 5126,
            "count" : 24,
            "type" : "VEC2"
        },
        {
            "bufferView" : 7,
            "componentType" : 5123,
            "count" : 36,
            "type" : "SCALAR"
        },
        {
            "bufferView" : 8,
            "componentType" : 5126,
            "count" : 24,
            "max" : [
                1,
                1,
                1
            ],
            "min" : [
                -1,
                -1,
                -1
            ],
            "type" : "VEC3"
        },
        {
            "bufferView" : 9,
            "componentType" : 5126,
            "count" : 24,
            "type" : "VEC3"
        },
        {
            "bufferView" : 10,
            "componentType" : 5126,
            "count" : 24,
            "type" : "VEC2"
        }
    ],
    "bufferViews" : [
        {
            "buffer" : 0,
            "byteLength" : 23808,
            "byteOffset" : 0
        },
        {
            "buffer" : 0,
            "byteLength" : 23808,
            "byteOffset" : 23808
        },
        {
            "buffer" : 0,
            "byteLength" : 15872,
            "byteOffset" : 47616
        },
        {
            "buffer" : 0,
            "byteLength" : 5760,
            "byteOffset" : 63488
        },
        {
            "buffer" : 0,
            "byteLength" : 288,
            "byteOffset" : 69248
        },
        {
            "buffer" : 0,
            "byteLength" : 288,
            "byteOffset" : 69536
        },
        {
            "buffer" : 0,
            "byteLength" : 192,
            "byteOffset" : 69824
        },
        {
            "buffer" : 0,
            "byteLength" : 72,
            "byteOffset" : 70016
        },
        {
            "buffer" : 0,
            "byteLength" : 288,
            "byteOffset" : 70088
        },
        {
            "buffer" : 0,
            "byteLength" : 288,
            "byteOffset" : 70376
        },
        {
            "buffer" : 0,
            "byteLength" : 192,
            "byteOffset" : 70664
        }
    ],
    "buffers" : [
        {
            "byteLength" : 70856,
            "uri" : "data:application/octet-stream;base64,"
        }
    ]
}
